<?xml version="1.0"?>
<svg xmlns="http://www.w3.org/2000/svg" xmlns:xlink="http://www.w3.org/1999/xlink" xmlns:svgjs="http://svgjs.com/svgjs" version="1.1" width="512" height="512" x="0" y="0" viewBox="0 0 497.002 497.002" style="enable-background:new 0 0 512 512" xml:space="preserve" class="">
    <g>
        <g xmlns="http://www.w3.org/2000/svg">
            <g>
                <path d="m248.499 126.566h55.322c34.952 0 63.283-28.333 63.283-63.283s-28.331-63.283-63.282-63.283h-55.322l-155.89 71.723v214.446h39.919c-25.66-78.817 33.523-159.603 115.97-159.603z" fill="#eff6fe" data-original="#70dcba" style="" class=""/>
                <path d="m433.718 185.218h-106.968c-34.952 0-63.283 28.333-63.283 63.283s28.331 63.283 63.283 63.283h26.034c-5.022 8.24-11.064 15.941-18.061 22.938-23.032 23.03-53.654 35.712-86.224 35.712-47.49 0-88.72-27.292-108.843-67.013v160.479h220.089l64.472-39.683c.001-.001.003-.002.004-.004 46.932-46.941 72.779-109.343 72.779-175.713.001-34.949-28.331-63.282-63.282-63.282z" fill="#eff6fe" data-original="#70dcba" style="" class=""/>
                <path d="m139.656 303.423c-2.799-5.524-5.186-11.289-7.128-17.254-40.528-110.472 9.065-234.572 115.971-286.169-137.023 0-248.498 111.478-248.498 248.502 0 137.023 111.475 248.5 248.499 248.5 66.377 0 128.779-25.846 175.719-72.783-112.237 39.165-235.242-13.723-284.563-120.796z" fill="#d9e4ef" data-original="#30cd9c" style="" class=""/>
            </g>
        </g>
    </g>
</svg>
